<?xml version="1.0" encoding="UTF-8"?>
<!DOCTYPE svg PUBLIC "-//W3C//DTD SVG 1.1//EN" "http://www.w3.org/Graphics/SVG/1.1/DTD/svg11.dtd">
<svg xmlns="http://www.w3.org/2000/svg" version="1.1" width="105px" height="105px" style="shape-rendering:geometricPrecision; text-rendering:geometricPrecision; image-rendering:optimizeQuality; fill-rule:evenodd; clip-rule:evenodd" xmlns:xlink="http://www.w3.org/1999/xlink">
<g><path style="opacity:0.898" fill="#0078c2" d="M 65.5,1.5 C 66.2389,1.36899 66.9056,1.53566 67.5,2C 53.5337,14.101 43.7003,28.9343 38,46.5C 34.8614,59.8156 37.6947,71.6489 46.5,82C 52.6747,88.3509 59.1747,88.8509 66,83.5C 68.1747,80.3315 67.3414,78.1649 63.5,77C 73.279,77.4724 77.1124,82.639 75,92.5C 73.1923,96.9744 70.0257,100.141 65.5,102C 48.0775,105.869 36.2442,99.3692 30,82.5C 24.3403,63.1396 27.3403,45.1396 39,28.5C 46.6963,18.3045 55.5296,9.30446 65.5,1.5 Z"/></g>
<g><path style="opacity:0.87" fill="#ed2e23" d="M 70.5,12.5 C 77.0001,11.4987 79.5001,14.1653 78,20.5C 75.5206,23.069 72.854,25.4023 70,27.5C 69.8333,28.1667 69.6667,28.8333 69.5,29.5C 70.7669,31.9435 72.2669,34.2769 74,36.5C 74.6667,38.1667 74.6667,39.8333 74,41.5C 70.4875,43.6791 67.6542,46.5125 65.5,50C 66.608,52.1124 68.108,53.9458 70,55.5C 70.1667,56.5 70.3333,57.5 70.5,58.5C 68.8333,61.8333 67.1667,65.1667 65.5,68.5C 65.6858,70.5795 66.6858,72.0795 68.5,73C 57.2616,73.7144 54.095,68.881 59,58.5C 60.6851,56.9825 62.1851,55.3159 63.5,53.5C 60.269,51.433 57.9357,48.5997 56.5,45C 58.7101,39.4548 62.3768,35.1214 67.5,32C 61.5445,29.4273 60.0445,25.2606 63,19.5C 65.3959,16.9334 67.8959,14.6 70.5,12.5 Z"/></g>
</svg>
