<?xml version="1.0" encoding="UTF-8"?>
<!DOCTYPE svg PUBLIC "-//W3C//DTD SVG 1.1//EN" "http://www.w3.org/Graphics/SVG/1.1/DTD/svg11.dtd">
<svg xmlns="http://www.w3.org/2000/svg" version="1.1" width="87px" height="156px" style="shape-rendering:geometricPrecision; text-rendering:geometricPrecision; image-rendering:optimizeQuality; fill-rule:evenodd; clip-rule:evenodd" xmlns:xlink="http://www.w3.org/1999/xlink">
<g><path style="opacity:0.004" fill="#fefffe" d="M 65.5,13.5 C 66.8333,14.1667 66.8333,14.1667 65.5,13.5 Z"/></g>
<g><path style="opacity:0.004" fill="#fefffe" d="M 60.5,17.5 C 61.8333,18.1667 61.8333,18.1667 60.5,17.5 Z"/></g>
<g><path style="opacity:1" fill="#9ea3a9" d="M 65.5,13.5 C 63.8089,14.8637 62.1423,16.197 60.5,17.5C 56.8333,20.8333 53.1667,24.1667 49.5,27.5C 49.6567,26.1266 49.49,24.7932 49,23.5C 48.6174,24.056 48.1174,24.3893 47.5,24.5C 52.2594,19.9163 57.2594,15.4163 62.5,11C 63.448,10.5172 64.448,10.3505 65.5,10.5C 65.5,11.5 65.5,12.5 65.5,13.5 Z"/></g>
<g><path style="opacity:0.765" fill="#89a6bc" d="M 47.5,24.5 C 43.8333,30.1667 39.1667,34.8333 33.5,38.5C 37.5,33.1667 42.1667,28.5 47.5,24.5 Z"/></g>
<g><path style="opacity:0.173" fill="#ea9591" d="M 65.5,29.5 C 73.0336,27.523 76.5336,30.523 76,38.5C 75.6174,39.056 75.1174,39.3893 74.5,39.5C 74.6633,37.1432 74.4966,34.8098 74,32.5C 73.6174,31.944 73.1174,31.6107 72.5,31.5C 72.3893,30.8826 72.056,30.3826 71.5,30C 69.5273,29.5045 67.5273,29.3379 65.5,29.5 Z"/></g>
<g><path style="opacity:1" fill="#cf261f" d="M 65.5,29.5 C 67.5273,29.3379 69.5273,29.5045 71.5,30C 72.056,30.3826 72.3893,30.8826 72.5,31.5C 70.076,31.1924 67.7427,31.5258 65.5,32.5C 62.4581,35.3454 59.1248,37.6787 55.5,39.5C 59.1396,36.5271 62.4729,33.1938 65.5,29.5 Z"/></g>
<g><path style="opacity:0.753" fill="#e6857d" d="M 65.5,29.5 C 62.4729,33.1938 59.1396,36.5271 55.5,39.5C 54.2248,42.3962 54.2248,45.3962 55.5,48.5C 54.8333,48.5 54.1667,48.5 53.5,48.5C 53.0074,46.1944 52.6741,43.861 52.5,41.5C 55.5509,36.0174 59.8842,32.0174 65.5,29.5 Z"/></g>
<g><path style="opacity:0.996" fill="#466c91" d="M 49.5,27.5 C 46.4534,30.5448 43.7867,33.8781 41.5,37.5C 39.5,39.8333 37.5,42.1667 35.5,44.5C 35.6775,43.3052 36.0109,42.1385 36.5,41C 35.8235,39.3167 34.8235,39.1501 33.5,40.5C 33.5,39.8333 33.5,39.1667 33.5,38.5C 39.1667,34.8333 43.8333,30.1667 47.5,24.5C 48.1174,24.3893 48.6174,24.056 49,23.5C 49.49,24.7932 49.6567,26.1266 49.5,27.5 Z"/></g>
<g><path style="opacity:0.004" fill="#fefffe" d="M 41.5,37.5 C 42.8333,38.1667 42.8333,38.1667 41.5,37.5 Z"/></g>
<g><path style="opacity:1" fill="#d64e3f" d="M 72.5,31.5 C 73.1174,31.6107 73.6174,31.944 74,32.5C 74.4966,34.8098 74.6633,37.1432 74.5,39.5C 73.7377,41.2624 72.4044,42.2624 70.5,42.5C 70.5,41.8333 70.5,41.1667 70.5,40.5C 73.5167,38.0949 74.1833,35.0949 72.5,31.5 Z"/></g>
<g><path style="opacity:0.996" fill="#f50f05" d="M 72.5,31.5 C 74.1833,35.0949 73.5167,38.0949 70.5,40.5C 67.1933,41.0508 63.8599,41.3841 60.5,41.5C 60.5,43.8333 60.5,46.1667 60.5,48.5C 58.6096,48.7035 57.1096,48.0368 56,46.5C 55.5034,44.1902 55.3367,41.8568 55.5,39.5C 59.1248,37.6787 62.4581,35.3454 65.5,32.5C 67.7427,31.5258 70.076,31.1924 72.5,31.5 Z"/></g>
<g><path style="opacity:0.996" fill="#e4251a" d="M 55.5,39.5 C 55.3367,41.8568 55.5034,44.1902 56,46.5C 57.1096,48.0368 58.6096,48.7035 60.5,48.5C 60.5,46.1667 60.5,43.8333 60.5,41.5C 63.8599,41.3841 67.1933,41.0508 70.5,40.5C 70.5,41.1667 70.5,41.8333 70.5,42.5C 70.1667,43.5 69.5,44.1667 68.5,44.5C 64.2494,45.2776 62.0827,47.9443 62,52.5C 61.3292,51.7476 60.4959,51.4142 59.5,51.5C 58.609,50.8902 57.609,50.5569 56.5,50.5C 56.1667,49.8333 55.8333,49.1667 55.5,48.5C 54.2248,45.3962 54.2248,42.3962 55.5,39.5 Z"/></g>
<g><path style="opacity:0.086" fill="#facac8" d="M 52.5,41.5 C 52.6741,43.861 53.0074,46.1944 53.5,48.5C 52.0069,47.6879 51.3402,46.3545 51.5,44.5C 51.5195,43.2739 51.8529,42.2739 52.5,41.5 Z"/></g>
<g><path style="opacity:0.957" fill="#789bb8" d="M 33.5,38.5 C 33.5,39.1667 33.5,39.8333 33.5,40.5C 31.7191,44.07 29.0525,46.7367 25.5,48.5C 27.7631,44.8971 30.4297,41.5638 33.5,38.5 Z"/></g>
<g><path style="opacity:0.086" fill="#fccbc8" d="M 53.5,48.5 C 54.1667,48.5 54.8333,48.5 55.5,48.5C 55.8333,49.1667 56.1667,49.8333 56.5,50.5C 54.9731,50.573 53.9731,49.9063 53.5,48.5 Z"/></g>
<g><path style="opacity:0.671" fill="#e37b73" d="M 68.5,44.5 C 66.7649,46.2345 65.4316,48.2345 64.5,50.5C 66.4031,53.9114 68.9031,56.9114 72,59.5C 72.6667,61.1667 72.6667,62.8333 72,64.5C 68.9772,66.6976 66.1438,69.031 63.5,71.5C 63.4007,67.3645 65.4007,65.0311 69.5,64.5C 71.2297,60.8204 70.2297,58.1537 66.5,56.5C 65.8549,55.1882 64.8549,54.1882 63.5,53.5C 62.4763,54.8532 61.143,55.5198 59.5,55.5C 62.0983,54.5278 62.0983,53.5278 59.5,52.5C 59.5,52.1667 59.5,51.8333 59.5,51.5C 60.4959,51.4142 61.3292,51.7476 62,52.5C 62.0827,47.9443 64.2494,45.2776 68.5,44.5 Z"/></g>
<g><path style="opacity:0.839" fill="#82a2bd" d="M 25.5,48.5 C 24.4903,52.5349 22.4903,55.8682 19.5,58.5C 20.5137,55.3111 22.1804,52.4778 24.5,50C 23.2881,48.8932 23.6214,48.3932 25.5,48.5 Z"/></g>
<g><path style="opacity:0.063" fill="#f6cdca" d="M 56.5,50.5 C 57.609,50.5569 58.609,50.8902 59.5,51.5C 59.5,51.8333 59.5,52.1667 59.5,52.5C 57.9731,52.573 56.9731,51.9063 56.5,50.5 Z"/></g>
<g><path style="opacity:1" fill="#d6382d" d="M 66.5,56.5 C 64.4727,56.3379 62.4727,56.5045 60.5,57C 58.7885,59.5193 56.4552,61.0193 53.5,61.5C 54.1098,60.609 54.4431,59.609 54.5,58.5C 55.922,57.075 57.5887,56.075 59.5,55.5C 61.143,55.5198 62.4763,54.8532 63.5,53.5C 64.8549,54.1882 65.8549,55.1882 66.5,56.5 Z"/></g>
<g><path style="opacity:0.482" fill="#f8b7b0" d="M 54.5,58.5 C 54.4431,59.609 54.1098,60.609 53.5,61.5C 52.5,61.8333 51.8333,62.5 51.5,63.5C 51.1667,63.5 50.8333,63.5 50.5,63.5C 51.0798,61.2512 52.4131,59.5846 54.5,58.5 Z"/></g>
<g><path style="opacity:0.997" fill="#1a5895" d="M 35.5,44.5 C 33.1517,48.5355 30.8184,52.5355 28.5,56.5C 26.7425,58.1407 25.2425,60.1407 24,62.5C 23.6667,62.1667 23.3333,61.8333 23,61.5C 23.0835,65.3113 22.2501,68.6446 20.5,71.5C 20.7692,69.5714 20.2692,67.9047 19,66.5C 18.3076,67.0253 17.8076,67.6919 17.5,68.5C 16.5741,72.0938 16.2408,75.7604 16.5,79.5C 15.5207,80.7653 14.5207,82.0986 13.5,83.5C 12.5745,82.3595 11.7412,82.3595 11,83.5C 9.95868,91.5367 10.4587,99.37 12.5,107C 12.0566,108.825 11.7233,110.658 11.5,112.5C 12.94,117.475 14.2733,122.475 15.5,127.5C 17.1788,127.285 18.1788,127.952 18.5,129.5C 17.1667,129.167 15.8333,128.833 14.5,128.5C 13.8333,127.5 13.1667,126.5 12.5,125.5C 12.7373,124.209 12.404,123.209 11.5,122.5C 11.5,122.167 11.5,121.833 11.5,121.5C 11.196,118.478 10.696,115.478 10,112.5C 9.2917,111.619 8.45837,110.953 7.5,110.5C 7.5,110.167 7.5,109.833 7.5,109.5C 7.44839,100.482 7.78172,91.4818 8.5,82.5C 10.6418,79.1996 11.9751,75.533 12.5,71.5C 12.6596,69.847 13.3263,68.5137 14.5,67.5C 17.4152,65.3494 19.0819,62.3494 19.5,58.5C 22.4903,55.8682 24.4903,52.5349 25.5,48.5C 29.0525,46.7367 31.7191,44.07 33.5,40.5C 34.8235,39.1501 35.8235,39.3167 36.5,41C 36.0109,42.1385 35.6775,43.3052 35.5,44.5 Z"/></g>
<g><path style="opacity:1" fill="#44709b" d="M 28.5,56.5 C 19.2781,75.222 19.2781,93.8887 28.5,112.5C 27.448,112.649 26.448,112.483 25.5,112C 24.624,110.414 23.624,108.914 22.5,107.5C 21.589,100.635 20.589,93.8018 19.5,87C 20.0178,81.8416 20.3511,76.6749 20.5,71.5C 22.2501,68.6446 23.0835,65.3113 23,61.5C 23.3333,61.8333 23.6667,62.1667 24,62.5C 25.2425,60.1407 26.7425,58.1407 28.5,56.5 Z"/></g>
<g><path style="opacity:0.996" fill="#eb150c" d="M 66.5,56.5 C 70.2297,58.1537 71.2297,60.8204 69.5,64.5C 65.4007,65.0311 63.4007,67.3645 63.5,71.5C 59.8333,71.8333 57.8333,73.8333 57.5,77.5C 54.615,76.6178 51.9483,75.2845 49.5,73.5C 48.6993,71.9582 48.366,70.2915 48.5,68.5C 49.7368,67.0351 50.7368,65.3684 51.5,63.5C 51.8333,62.5 52.5,61.8333 53.5,61.5C 56.4552,61.0193 58.7885,59.5193 60.5,57C 62.4727,56.5045 64.4727,56.3379 66.5,56.5 Z"/></g>
<g><path style="opacity:1" fill="#567da2" d="M 19.5,58.5 C 19.0819,62.3494 17.4152,65.3494 14.5,67.5C 15.4097,64.0078 17.0764,61.0078 19.5,58.5 Z"/></g>
<g><path style="opacity:0.753" fill="#df756b" d="M 50.5,63.5 C 50.8333,63.5 51.1667,63.5 51.5,63.5C 50.7368,65.3684 49.7368,67.0351 48.5,68.5C 48.5,67.8333 48.5,67.1667 48.5,66.5C 48.427,64.9731 49.0937,63.9731 50.5,63.5 Z"/></g>
<g><path style="opacity:0.863" fill="#eeb3b0" d="M 48.5,66.5 C 48.5,67.1667 48.5,67.8333 48.5,68.5C 48.366,70.2915 48.6993,71.9582 49.5,73.5C 49.8333,74.1667 50.1667,74.8333 50.5,75.5C 48.9699,74.7888 47.6366,73.7888 46.5,72.5C 46.67,71.1779 46.3366,70.0113 45.5,69C 46.6906,68.3021 47.6906,67.4687 48.5,66.5 Z"/></g>
<g><path style="opacity:0.004" fill="#fefffe" d="M 46.5,72.5 C 45.8333,73.1667 45.8333,73.1667 46.5,72.5 Z"/></g>
<g><path style="opacity:0.722" fill="#90adc6" d="M 12.5,71.5 C 11.9751,75.533 10.6418,79.1996 8.5,82.5C 8.31701,80.0637 8.98368,77.897 10.5,76C 10.1667,75.6667 9.83333,75.3333 9.5,75C 10.6364,73.8549 11.6364,72.6883 12.5,71.5 Z"/></g>
<g><path style="opacity:0.965" fill="#d65951" d="M 63.5,71.5 C 61.4689,72.5387 60.1355,74.2054 59.5,76.5C 59.5569,77.609 59.8902,78.609 60.5,79.5C 59.2223,79.7822 58.2223,80.4489 57.5,81.5C 57.6716,80.5084 57.3382,79.8417 56.5,79.5C 54.2279,78.5589 52.2279,77.2255 50.5,75.5C 50.1667,74.8333 49.8333,74.1667 49.5,73.5C 51.9483,75.2845 54.615,76.6178 57.5,77.5C 57.8333,73.8333 59.8333,71.8333 63.5,71.5 Z"/></g>
<g><path style="opacity:0.035" fill="#f8efee" d="M 56.5,79.5 C 57.3382,79.8417 57.6716,80.5084 57.5,81.5C 56.8333,81.8333 56.1667,82.1667 55.5,82.5C 55.5569,81.391 55.8902,80.391 56.5,79.5 Z"/></g>
<g><path style="opacity:0.996" fill="#db1d16" d="M 60.5,79.5 C 63.0034,81.4143 65.0034,83.7477 66.5,86.5C 64.085,89.5823 62.085,92.9156 60.5,96.5C 59.5318,98.6074 59.1984,100.941 59.5,103.5C 58.1667,103.5 56.8333,103.5 55.5,103.5C 54.2905,103.068 53.2905,102.401 52.5,101.5C 50.452,99.5436 49.452,97.0436 49.5,94C 51.3006,90.0409 53.3006,86.2075 55.5,82.5C 56.1667,82.1667 56.8333,81.8333 57.5,81.5C 58.2223,80.4489 59.2223,79.7822 60.5,79.5 Z"/></g>
<g><path style="opacity:0.973" fill="#ea9792" d="M 55.5,82.5 C 53.3006,86.2075 51.3006,90.0409 49.5,94C 49.452,97.0436 50.452,99.5436 52.5,101.5C 53.2905,102.401 54.2905,103.068 55.5,103.5C 55.5,103.833 55.5,104.167 55.5,104.5C 47.4082,101.726 45.4082,96.3928 49.5,88.5C 50.8549,85.8118 52.8549,83.8118 55.5,82.5 Z"/></g>
<g><path style="opacity:0.996" fill="#065aa4" d="M 16.5,79.5 C 18.4704,84.7166 18.4704,89.8832 16.5,95C 17.942,98.1283 17.442,100.962 15,103.5C 14.8236,106.882 14.3236,110.215 13.5,113.5C 12.8165,113.137 12.1499,112.804 11.5,112.5C 11.7233,110.658 12.0566,108.825 12.5,107C 10.4587,99.37 9.95868,91.5367 11,83.5C 11.7412,82.3595 12.5745,82.3595 13.5,83.5C 14.5207,82.0986 15.5207,80.7653 16.5,79.5 Z"/></g>
<g><path style="opacity:0.267" fill="#e5837e" d="M 59.5,76.5 C 62.2105,78.9446 65.0438,81.2779 68,83.5C 68.1667,84.3333 68.3333,85.1667 68.5,86C 66.7811,89.401 64.6145,92.5676 62,95.5C 61.2109,97.7116 61.3775,99.7116 62.5,101.5C 62.5,102.167 62.5,102.833 62.5,103.5C 61.8826,103.389 61.3826,103.056 61,102.5C 60.5045,100.527 60.3379,98.5273 60.5,96.5C 62.085,92.9156 64.085,89.5823 66.5,86.5C 65.0034,83.7477 63.0034,81.4143 60.5,79.5C 59.8902,78.609 59.5569,77.609 59.5,76.5 Z"/></g>
<g><path style="opacity:0.996" fill="#f21008" d="M 52.5,101.5 C 51.2488,98.5943 50.7488,95.5943 51,92.5C 52.4578,90.04 54.2911,87.8734 56.5,86C 57.7839,85.3162 58.9505,85.4829 60,86.5C 60.3149,83.8532 61.4816,83.1865 63.5,84.5C 64.5975,88.1411 63.2642,90.8078 59.5,92.5C 58.8333,95.8333 58.1667,99.1667 57.5,102.5C 55.9291,101.691 54.2624,101.357 52.5,101.5 Z"/></g>
<g><path style="opacity:0.757" fill="#7fa2c1" d="M 8.5,82.5 C 7.78172,91.4818 7.44839,100.482 7.5,109.5C 6.53178,107.393 6.19845,105.059 6.5,102.5C 6.5,99.8333 6.5,97.1667 6.5,94.5C 6.4452,91.3311 6.4452,88.1644 6.5,85C 7.06594,84.0053 7.73261,83.172 8.5,82.5 Z"/></g>
<g><path style="opacity:0.996" fill="#0a599f" d="M 20.5,71.5 C 20.3511,76.6749 20.0178,81.8416 19.5,87C 20.589,93.8018 21.589,100.635 22.5,107.5C 23.624,108.914 24.624,110.414 25.5,112C 26.448,112.483 27.448,112.649 28.5,112.5C 29.0604,114.801 29.5604,117.134 30,119.5C 31.9923,120.328 33.4923,121.661 34.5,123.5C 32.5,123.5 30.5,123.5 28.5,123.5C 28.5,125.833 28.5,128.167 28.5,130.5C 26.8333,130.5 25.1667,130.5 23.5,130.5C 23.5,129.167 23.5,127.833 23.5,126.5C 22.1667,126.5 20.8333,126.5 19.5,126.5C 19.3433,127.873 19.51,129.207 20,130.5C 21.3619,131.925 22.8619,132.758 24.5,133C 23.944,133.383 23.6107,133.883 23.5,134.5C 20.2033,134.368 18.5367,132.702 18.5,129.5C 18.1788,127.952 17.1788,127.285 15.5,127.5C 14.2733,122.475 12.94,117.475 11.5,112.5C 12.1499,112.804 12.8165,113.137 13.5,113.5C 14.3236,110.215 14.8236,106.882 15,103.5C 17.442,100.962 17.942,98.1283 16.5,95C 18.4704,89.8832 18.4704,84.7166 16.5,79.5C 16.2408,75.7604 16.5741,72.0938 17.5,68.5C 17.8076,67.6919 18.3076,67.0253 19,66.5C 20.2692,67.9047 20.7692,69.5714 20.5,71.5 Z"/></g>
<g><path style="opacity:0.016" fill="#f8fafb" d="M 6.5,94.5 C 6.5,97.1667 6.5,99.8333 6.5,102.5C 5.71087,102.217 5.0442,101.717 4.5,101C 5.83333,99.6667 5.83333,98.3333 4.5,97C 5.06594,96.0053 5.73261,95.172 6.5,94.5 Z"/></g>
<g><path style="opacity:0.965" fill="#c73d3d" d="M 60.5,96.5 C 60.3379,98.5273 60.5045,100.527 61,102.5C 61.3826,103.056 61.8826,103.389 62.5,103.5C 60.3926,104.468 58.0593,104.802 55.5,104.5C 55.5,104.167 55.5,103.833 55.5,103.5C 56.8333,103.5 58.1667,103.5 59.5,103.5C 59.1984,100.941 59.5318,98.6074 60.5,96.5 Z"/></g>
<g><path style="opacity:0.475" fill="#e38282" d="M 62.5,103.5 C 63.0431,103.56 63.3764,103.893 63.5,104.5C 61.604,105.466 59.604,105.799 57.5,105.5C 56.5084,105.672 55.8417,105.338 55.5,104.5C 58.0593,104.802 60.3926,104.468 62.5,103.5 Z"/></g>
<g><path style="opacity:0.035" fill="#ece8ea" d="M 62.5,101.5 C 65.5187,101.972 66.5187,103.472 65.5,106C 62.633,106.801 59.9664,106.634 57.5,105.5C 59.604,105.799 61.604,105.466 63.5,104.5C 63.3764,103.893 63.0431,103.56 62.5,103.5C 62.5,102.833 62.5,102.167 62.5,101.5 Z"/></g>
<g><path style="opacity:0.694" fill="#a3b6c6" d="M 68.5,114.5 C 66.742,114.123 65.0754,113.456 63.5,112.5C 63.1667,112.833 62.8333,113.167 62.5,113.5C 64.3925,115.881 64.8925,118.547 64,121.5C 63.2917,122.381 62.4584,123.047 61.5,123.5C 62.379,121.772 63.0457,119.939 63.5,118C 61.8996,115.843 60.233,113.676 58.5,111.5C 62.4219,110.473 65.7552,111.473 68.5,114.5 Z"/></g>
<g><path style="opacity:1" fill="#366895" d="M 28.5,112.5 C 32.5888,117.925 37.5888,122.258 43.5,125.5C 40.5,124.833 37.5,124.167 34.5,123.5C 33.4923,121.661 31.9923,120.328 30,119.5C 29.5604,117.134 29.0604,114.801 28.5,112.5 Z"/></g>
<g><path style="opacity:0.722" fill="#6a8eb1" d="M 7.5,110.5 C 8.45837,110.953 9.2917,111.619 10,112.5C 10.696,115.478 11.196,118.478 11.5,121.5C 10.6906,120.531 9.69057,119.698 8.5,119C 8.95735,118.586 9.29069,118.086 9.5,117.5C 8.39949,115.358 7.39949,113.192 6.5,111C 6.72845,110.601 7.06178,110.435 7.5,110.5 Z"/></g>
<g><path style="opacity:0.004" fill="#e0e7ef" d="M 11.5,122.5 C 12.404,123.209 12.7373,124.209 12.5,125.5C 11.7326,124.828 11.0659,123.995 10.5,123C 10.7284,122.601 11.0618,122.435 11.5,122.5 Z"/></g>
<g><path style="opacity:0.996" fill="#0c59a4" d="M 70.5,117.5 C 73.6563,120.383 74.9896,124.049 74.5,128.5C 73.0108,130.116 72.0108,132.116 71.5,134.5C 70.5147,132.228 69.6813,129.895 69,127.5C 67.2933,128.138 65.46,128.138 63.5,127.5C 62.8333,127.5 62.5,127.167 62.5,126.5C 62.4614,125.244 62.9614,124.244 64,123.5C 64.6667,124.833 65.3333,124.833 66,123.5C 67.4947,121.89 67.6613,120.224 66.5,118.5C 67.6888,117.571 69.0222,117.238 70.5,117.5 Z"/></g>
<g><path style="opacity:0.765" fill="#7397b4" d="M 68.5,114.5 C 75.1244,118.167 77.6244,123.833 76,131.5C 75.7679,132.737 75.2679,133.737 74.5,134.5C 74.5,132.5 74.5,130.5 74.5,128.5C 74.9896,124.049 73.6563,120.383 70.5,117.5C 69.8333,116.5 69.1667,115.5 68.5,114.5 Z"/></g>
<g><path style="opacity:0.11" fill="#688fb0" d="M 61.5,123.5 C 60.8836,125.417 59.5503,126.584 57.5,127C 53.5138,127.499 49.5138,127.666 45.5,127.5C 44.5,127.167 43.8333,126.5 43.5,125.5C 49.8337,127.241 55.8337,126.574 61.5,123.5 Z"/></g>
<g><path style="opacity:1" fill="#1b578e" d="M 68.5,114.5 C 69.1667,115.5 69.8333,116.5 70.5,117.5C 69.0222,117.238 67.6888,117.571 66.5,118.5C 67.6613,120.224 67.4947,121.89 66,123.5C 65.3333,124.833 64.6667,124.833 64,123.5C 62.9614,124.244 62.4614,125.244 62.5,126.5C 58.1593,128.561 53.4926,129.561 48.5,129.5C 46.8212,129.715 45.8212,129.048 45.5,127.5C 49.5138,127.666 53.5138,127.499 57.5,127C 59.5503,126.584 60.8836,125.417 61.5,123.5C 62.4584,123.047 63.2917,122.381 64,121.5C 64.8925,118.547 64.3925,115.881 62.5,113.5C 62.8333,113.167 63.1667,112.833 63.5,112.5C 65.0754,113.456 66.742,114.123 68.5,114.5 Z"/></g>
<g><path style="opacity:0.996" fill="#0a59a1" d="M 34.5,123.5 C 37.5,124.167 40.5,124.833 43.5,125.5C 43.8333,126.5 44.5,127.167 45.5,127.5C 45.8212,129.048 46.8212,129.715 48.5,129.5C 51.0459,129.982 53.3792,130.982 55.5,132.5C 53.1219,135.076 50.1219,136.076 46.5,135.5C 44.5,135.5 42.5,135.5 40.5,135.5C 40.5228,137.6 39.8561,139.433 38.5,141C 38.8333,141.5 39.1667,142 39.5,142.5C 42.4621,143.009 45.1288,144.009 47.5,145.5C 44.8004,144.484 42.1337,144.484 39.5,145.5C 36.7852,143.736 33.7852,142.736 30.5,142.5C 29.9556,140.42 29.1223,138.42 28,136.5C 26.8904,134.963 25.3904,134.297 23.5,134.5C 23.6107,133.883 23.944,133.383 24.5,133C 22.8619,132.758 21.3619,131.925 20,130.5C 19.51,129.207 19.3433,127.873 19.5,126.5C 20.8333,126.5 22.1667,126.5 23.5,126.5C 23.5,127.833 23.5,129.167 23.5,130.5C 25.1667,130.5 26.8333,130.5 28.5,130.5C 28.5,128.167 28.5,125.833 28.5,123.5C 30.5,123.5 32.5,123.5 34.5,123.5 Z"/></g>
<g><path style="opacity:0.996" fill="#1c5d9b" d="M 63.5,127.5 C 65.46,128.138 67.2933,128.138 69,127.5C 69.6813,129.895 70.5147,132.228 71.5,134.5C 72.0108,132.116 73.0108,130.116 74.5,128.5C 74.5,130.5 74.5,132.5 74.5,134.5C 73.2549,138.746 70.5882,141.746 66.5,143.5C 66.2606,141.533 66.5939,139.699 67.5,138C 65.7536,137.529 64.087,136.862 62.5,136C 62.2857,133.271 62.619,130.438 63.5,127.5 Z"/></g>
<g><path style="opacity:0.996" fill="#07599f" d="M 62.5,126.5 C 62.5,127.167 62.8333,127.5 63.5,127.5C 62.619,130.438 62.2857,133.271 62.5,136C 64.087,136.862 65.7536,137.529 67.5,138C 66.5939,139.699 66.2606,141.533 66.5,143.5C 63.3915,143.264 60.3915,143.597 57.5,144.5C 55.5615,142.837 53.2282,142.171 50.5,142.5C 50.5,140.833 50.5,139.167 50.5,137.5C 48.5168,137.843 47.1834,137.176 46.5,135.5C 50.1219,136.076 53.1219,135.076 55.5,132.5C 53.3792,130.982 51.0459,129.982 48.5,129.5C 53.4926,129.561 58.1593,128.561 62.5,126.5 Z"/></g>
<g><path style="opacity:0.997" fill="#0858a3" d="M 46.5,135.5 C 47.1834,137.176 48.5168,137.843 50.5,137.5C 50.5,139.167 50.5,140.833 50.5,142.5C 53.2282,142.171 55.5615,142.837 57.5,144.5C 54.272,145.414 50.9387,145.747 47.5,145.5C 45.1288,144.009 42.4621,143.009 39.5,142.5C 39.1667,142 38.8333,141.5 38.5,141C 39.8561,139.433 40.5228,137.6 40.5,135.5C 42.5,135.5 44.5,135.5 46.5,135.5 Z"/></g>
<g><path style="opacity:1" fill="#366593" d="M 14.5,128.5 C 15.8333,128.833 17.1667,129.167 18.5,129.5C 18.5367,132.702 20.2033,134.368 23.5,134.5C 25.3904,134.297 26.8904,134.963 28,136.5C 29.1223,138.42 29.9556,140.42 30.5,142.5C 33.7852,142.736 36.7852,143.736 39.5,145.5C 42.1337,144.484 44.8004,144.484 47.5,145.5C 50.9387,145.747 54.272,145.414 57.5,144.5C 60.3915,143.597 63.3915,143.264 66.5,143.5C 45.3323,152.205 27.999,147.205 14.5,128.5 Z"/></g>
</svg>
